<svg width="88" height="88" viewBox="0 0 88 88" fill="none" xmlns="http://www.w3.org/2000/svg">
<path d="M88 44C88 68.3005 68.3005 88 44 88C19.6995 88 0 68.3005 0 44C0 19.6995 19.6995 0 44 0C68.3005 0 88 19.6995 88 44Z" fill="#2B71B7"/>
<path d="M33.1874 19.7231C33.1874 18.4463 33.4542 17.1819 33.9725 16.0022C34.4909 14.8226 35.2507 13.7507 36.2085 12.8478C37.1663 11.945 38.3034 11.2288 39.5548 10.7401C40.8062 10.2515 42.1475 10 43.502 10C44.8566 10 46.1979 10.2515 47.4493 10.7401C48.7007 11.2288 49.8378 11.945 50.7956 12.8478C51.7534 13.7507 52.5132 14.8226 53.0316 16.0022C53.5499 17.1819 53.8167 18.4463 53.8167 19.7231C53.8167 21 53.5499 22.2643 53.0316 23.444C52.5132 24.6236 51.7534 25.6955 50.7956 26.5984C49.8378 27.5013 48.7007 28.2175 47.4493 28.7061C46.1979 29.1947 44.8566 29.4462 43.502 29.4462C42.1475 29.4462 40.8062 29.1947 39.5548 28.7061C38.3034 28.2175 37.1663 27.5013 36.2085 26.5984C35.2507 25.6955 34.4909 24.6236 33.9725 23.444C33.4542 22.2643 33.1874 21 33.1874 19.7231ZM17.0993 27.3531C18.9617 24.9358 22.5432 24.4091 25.1075 26.1647L30.2935 29.7163C34.1329 32.3497 38.7602 33.7676 43.502 33.7676C48.2439 33.7676 52.8712 32.3497 56.7106 29.7163L61.8966 26.1512C64.4609 24.3956 68.0424 24.9358 69.9048 27.3395C71.7671 29.7433 71.1941 33.1329 68.6441 34.8885L63.4581 38.4536C61.5098 39.7905 59.4325 40.9114 57.255 41.8297V46.7318H29.7491V41.8297C27.5716 40.9249 25.4943 39.7905 23.546 38.4536L18.36 34.8885C15.7957 33.1329 15.237 29.7568 17.0993 27.3395V27.3531ZM29.964 52.309L38.6456 59.4663L34.9208 64.4899L38.402 67.7715C40.6369 69.8782 40.6369 73.2947 38.402 75.4149C36.1672 77.5351 32.5427 77.5216 30.2935 75.4149L23.4171 68.9329C21.4401 67.0693 21.1679 64.1523 22.7581 62.0051L29.9497 52.309H29.964ZM48.3729 59.4663L57.0544 52.309L64.246 62.0051C65.8362 64.1523 65.564 67.0693 63.6013 68.9193L56.7249 75.4014C54.49 77.5081 50.8656 77.5081 48.6164 75.4014C46.3672 73.2947 46.3816 69.8782 48.6164 67.758L52.0976 64.4764L48.3729 59.4528V59.4663Z" fill="#E6F0FD"/>
</svg>
