<svg width="212" height="24" viewBox="0 0 212 24" fill="none" xmlns="http://www.w3.org/2000/svg">
<path d="M6.43478 4.125C6.43478 3.68179 6.52587 3.24292 6.70285 2.83344C6.87984 2.42397 7.13925 2.05191 7.46627 1.73851C7.7933 1.42512 8.18153 1.17652 8.60881 1.00691C9.03608 0.837297 9.49404 0.75 9.95652 0.75C10.419 0.75 10.877 0.837297 11.3042 1.00691C11.7315 1.17652 12.1197 1.42512 12.4468 1.73851C12.7738 2.05191 13.0332 2.42397 13.2102 2.83344C13.3872 3.24292 13.4783 3.68179 13.4783 4.125C13.4783 4.56821 13.3872 5.00708 13.2102 5.41656C13.0332 5.82603 12.7738 6.19809 12.4468 6.51149C12.1197 6.82488 11.7315 7.07349 11.3042 7.24309C10.877 7.4127 10.419 7.5 9.95652 7.5C9.49404 7.5 9.03608 7.4127 8.60881 7.24309C8.18153 7.07349 7.7933 6.82488 7.46627 6.51149C7.13925 6.19809 6.87984 5.82603 6.70285 5.41656C6.52587 5.00708 6.43478 4.56821 6.43478 4.125ZM0.941844 6.77344C1.57771 5.93438 2.80054 5.75156 3.67608 6.36094L5.44674 7.59375C6.7576 8.50781 8.3375 9 9.95652 9C11.5755 9 13.1554 8.50781 14.4663 7.59375L16.237 6.35625C17.1125 5.74688 18.3353 5.93438 18.9712 6.76875C19.6071 7.60313 19.4114 8.77969 18.5408 9.38906L16.7701 10.6266C16.1049 11.0906 15.3956 11.4797 14.6522 11.7984V13.5H5.26087V11.7984C4.51739 11.4844 3.80815 11.0906 3.14293 10.6266L1.37228 9.38906C0.496736 8.77969 0.305975 7.60781 0.941844 6.76875V6.77344ZM5.33424 15.4359L8.29837 17.9203L7.02663 19.6641L8.21521 20.8031C8.97826 21.5344 8.97826 22.7203 8.21521 23.4563C7.45217 24.1922 6.21467 24.1875 5.44674 23.4563L3.09891 21.2063C2.42391 20.5594 2.33097 19.5469 2.87391 18.8016L5.32934 15.4359H5.33424ZM11.6196 17.9203L14.5837 15.4359L17.0391 18.8016C17.5821 19.5469 17.4891 20.5594 16.819 21.2016L14.4712 23.4516C13.7081 24.1828 12.4706 24.1828 11.7027 23.4516C10.9348 22.7203 10.9397 21.5344 11.7027 20.7984L12.8913 19.6594L11.6196 17.9156V17.9203Z" fill="#E6F0FD"/>
<path d="M31.998 12.3424C32.6745 12.4685 33.2307 12.8068 33.6664 13.3572C34.1021 13.9076 34.32 14.5383 34.32 15.2492C34.32 15.8913 34.1595 16.4589 33.8384 16.952C33.5288 17.4336 33.0759 17.812 32.4796 18.0872C31.8833 18.3624 31.1781 18.5 30.364 18.5H25.1868V6.4944H30.1404C30.9545 6.4944 31.654 6.62627 32.2388 6.89C32.8351 7.15373 33.2823 7.52067 33.5804 7.9908C33.89 8.46093 34.0448 8.99413 34.0448 9.5904C34.0448 10.2899 33.8556 10.8747 33.4772 11.3448C33.1103 11.8149 32.6172 12.1475 31.998 12.3424ZM27.5948 11.448H29.7964C30.3697 11.448 30.8112 11.3219 31.1208 11.0696C31.4304 10.8059 31.5852 10.4332 31.5852 9.9516C31.5852 9.47 31.4304 9.09733 31.1208 8.8336C30.8112 8.56987 30.3697 8.438 29.7964 8.438H27.5948V11.448ZM30.02 16.5392C30.6048 16.5392 31.0577 16.4016 31.3788 16.1264C31.7113 15.8512 31.8776 15.4613 31.8776 14.9568C31.8776 14.4408 31.7056 14.0395 31.3616 13.7528C31.0176 13.4547 30.5532 13.3056 29.9684 13.3056H27.5948V16.5392H30.02ZM35.9199 13.7012C35.9199 12.738 36.1091 11.8837 36.4875 11.1384C36.8774 10.3931 37.3991 9.81973 38.0527 9.4184C38.7178 9.01707 39.4574 8.8164 40.2715 8.8164C40.9825 8.8164 41.6017 8.95973 42.1291 9.2464C42.6681 9.53307 43.0981 9.89427 43.4191 10.33V8.9712H45.8443V18.5H43.4191V17.1068C43.1095 17.554 42.6795 17.9267 42.1291 18.2248C41.5902 18.5115 40.9653 18.6548 40.2543 18.6548C39.4517 18.6548 38.7178 18.4484 38.0527 18.0356C37.3991 17.6228 36.8774 17.0437 36.4875 16.2984C36.1091 15.5416 35.9199 14.6759 35.9199 13.7012ZM43.4191 13.7356C43.4191 13.1508 43.3045 12.652 43.0751 12.2392C42.8458 11.8149 42.5362 11.4939 42.1463 11.276C41.7565 11.0467 41.3379 10.932 40.8907 10.932C40.4435 10.932 40.0307 11.0409 39.6523 11.2588C39.2739 11.4767 38.9643 11.7977 38.7235 12.222C38.4942 12.6348 38.3795 13.1279 38.3795 13.7012C38.3795 14.2745 38.4942 14.7791 38.7235 15.2148C38.9643 15.6391 39.2739 15.9659 39.6523 16.1952C40.0422 16.4245 40.455 16.5392 40.8907 16.5392C41.3379 16.5392 41.7565 16.4303 42.1463 16.2124C42.5362 15.9831 42.8458 15.662 43.0751 15.2492C43.3045 14.8249 43.4191 14.3204 43.4191 13.7356ZM50.9042 10.3644C51.2138 9.90573 51.638 9.53307 52.177 9.2464C52.7274 8.95973 53.3523 8.8164 54.0518 8.8164C54.8659 8.8164 55.5998 9.01707 56.2534 9.4184C56.9184 9.81973 57.4402 10.3931 57.8186 11.1384C58.2084 11.8723 58.4034 12.7265 58.4034 13.7012C58.4034 14.6759 58.2084 15.5416 57.8186 16.2984C57.4402 17.0437 56.9184 17.6228 56.2534 18.0356C55.5998 18.4484 54.8659 18.6548 54.0518 18.6548C53.3408 18.6548 52.7159 18.5172 52.177 18.242C51.6495 17.9553 51.2252 17.5884 50.9042 17.1412V18.5H48.4962V5.772H50.9042V10.3644ZM55.9438 13.7012C55.9438 13.1279 55.8234 12.6348 55.5826 12.222C55.3532 11.7977 55.0436 11.4767 54.6538 11.2588C54.2754 11.0409 53.8626 10.932 53.4154 10.932C52.9796 10.932 52.5668 11.0467 52.177 11.276C51.7986 11.4939 51.489 11.8149 51.2482 12.2392C51.0188 12.6635 50.9042 13.1623 50.9042 13.7356C50.9042 14.3089 51.0188 14.8077 51.2482 15.232C51.489 15.6563 51.7986 15.9831 52.177 16.2124C52.5668 16.4303 52.9796 16.5392 53.4154 16.5392C53.8626 16.5392 54.2754 16.4245 54.6538 16.1952C55.0436 15.9659 55.3532 15.6391 55.5826 15.2148C55.8234 14.7905 55.9438 14.286 55.9438 13.7012ZM69.5692 8.9712L63.6696 23.0064H61.1068L63.1708 18.2592L59.3524 8.9712H62.0528L64.5124 15.6276L67.0064 8.9712H69.5692ZM91.6133 6.4944L88.2593 18.5H85.4213L83.1681 9.9516L80.8117 18.5L77.9909 18.5172L74.7573 6.4944H77.3373L79.4529 15.8168L81.8953 6.4944H84.5785L86.8833 15.7652L89.0161 6.4944H91.6133ZM102.344 13.5292C102.344 13.8732 102.321 14.1828 102.275 14.458H95.3088C95.3662 15.146 95.607 15.6849 96.0312 16.0748C96.4555 16.4647 96.9772 16.6596 97.5964 16.6596C98.4908 16.6596 99.1272 16.2755 99.5056 15.5072H102.103C101.828 16.4245 101.3 17.1813 100.52 17.7776C99.7407 18.3624 98.7832 18.6548 97.648 18.6548C96.7307 18.6548 95.9051 18.4541 95.1712 18.0528C94.4488 17.64 93.8812 17.0609 93.4684 16.3156C93.0671 15.5703 92.8664 14.7103 92.8664 13.7356C92.8664 12.7495 93.0671 11.8837 93.4684 11.1384C93.8698 10.3931 94.4316 9.81973 95.154 9.4184C95.8764 9.01707 96.7078 8.8164 97.648 8.8164C98.5539 8.8164 99.3623 9.01133 100.073 9.4012C100.796 9.79107 101.352 10.3472 101.742 11.0696C102.143 11.7805 102.344 12.6004 102.344 13.5292ZM99.8496 12.8412C99.8382 12.222 99.6146 11.7289 99.1788 11.362C98.7431 10.9836 98.2099 10.7944 97.5792 10.7944C96.983 10.7944 96.4784 10.9779 96.0656 11.3448C95.6643 11.7003 95.4178 12.1991 95.326 12.8412H99.8496ZM105.622 7.836C105.198 7.836 104.843 7.70413 104.556 7.4404C104.281 7.1652 104.143 6.82693 104.143 6.4256C104.143 6.02427 104.281 5.69173 104.556 5.428C104.843 5.1528 105.198 5.0152 105.622 5.0152C106.047 5.0152 106.396 5.1528 106.672 5.428C106.958 5.69173 107.102 6.02427 107.102 6.4256C107.102 6.82693 106.958 7.1652 106.672 7.4404C106.396 7.70413 106.047 7.836 105.622 7.836ZM106.809 8.9712V18.5H104.401V8.9712H106.809ZM113.221 8.8164C113.932 8.8164 114.557 8.95973 115.096 9.2464C115.635 9.5216 116.059 9.8828 116.368 10.33V8.9712H118.794V18.5688C118.794 19.4517 118.616 20.2372 118.26 20.9252C117.905 21.6247 117.372 22.1751 116.661 22.5764C115.95 22.9892 115.09 23.1956 114.081 23.1956C112.728 23.1956 111.615 22.8803 110.744 22.2496C109.884 21.6189 109.397 20.7589 109.282 19.6696H111.673C111.799 20.1053 112.068 20.4493 112.481 20.7016C112.905 20.9653 113.416 21.0972 114.012 21.0972C114.711 21.0972 115.279 20.8851 115.715 20.4608C116.151 20.048 116.368 19.4173 116.368 18.5688V17.0896C116.059 17.5368 115.629 17.9095 115.078 18.2076C114.539 18.5057 113.92 18.6548 113.221 18.6548C112.418 18.6548 111.684 18.4484 111.019 18.0356C110.354 17.6228 109.827 17.0437 109.437 16.2984C109.058 15.5416 108.869 14.6759 108.869 13.7012C108.869 12.738 109.058 11.8837 109.437 11.1384C109.827 10.3931 110.348 9.81973 111.002 9.4184C111.667 9.01707 112.407 8.8164 113.221 8.8164ZM116.368 13.7356C116.368 13.1508 116.254 12.652 116.024 12.2392C115.795 11.8149 115.485 11.4939 115.096 11.276C114.706 11.0467 114.287 10.932 113.84 10.932C113.393 10.932 112.98 11.0409 112.602 11.2588C112.223 11.4767 111.914 11.7977 111.673 12.222C111.443 12.6348 111.329 13.1279 111.329 13.7012C111.329 14.2745 111.443 14.7791 111.673 15.2148C111.914 15.6391 112.223 15.9659 112.602 16.1952C112.991 16.4245 113.404 16.5392 113.84 16.5392C114.287 16.5392 114.706 16.4303 115.096 16.2124C115.485 15.9831 115.795 15.662 116.024 15.2492C116.254 14.8249 116.368 14.3204 116.368 13.7356ZM126.812 8.8336C127.534 8.8336 128.176 8.99413 128.738 9.3152C129.3 9.6248 129.736 10.0892 130.045 10.7084C130.366 11.3161 130.527 12.05 130.527 12.91V18.5H128.119V13.2368C128.119 12.48 127.93 11.9009 127.551 11.4996C127.173 11.0868 126.657 10.8804 126.003 10.8804C125.338 10.8804 124.811 11.0868 124.421 11.4996C124.043 11.9009 123.853 12.48 123.853 13.2368V18.5H121.445V5.772H123.853V10.158C124.163 9.7452 124.576 9.42413 125.092 9.1948C125.608 8.954 126.181 8.8336 126.812 8.8336ZM135.92 10.9492V15.5588C135.92 15.8799 135.995 16.1149 136.144 16.264C136.305 16.4016 136.568 16.4704 136.935 16.4704H138.053V18.5H136.54C134.51 18.5 133.495 17.5139 133.495 15.5416V10.9492H132.36V8.9712H133.495V6.6148H135.92V8.9712H138.053V10.9492H135.92ZM152.654 6.4944V8.438H149.454V18.5H147.046V8.438H143.847V6.4944H152.654ZM157.119 10.4504C157.428 9.94587 157.83 9.55027 158.323 9.2636C158.827 8.97693 159.401 8.8336 160.043 8.8336V11.362H159.406C158.649 11.362 158.076 11.5397 157.686 11.8952C157.308 12.2507 157.119 12.8699 157.119 13.7528V18.5H154.711V8.9712H157.119V10.4504ZM161.345 13.7012C161.345 12.738 161.535 11.8837 161.913 11.1384C162.303 10.3931 162.825 9.81973 163.478 9.4184C164.143 9.01707 164.883 8.8164 165.697 8.8164C166.408 8.8164 167.027 8.95973 167.555 9.2464C168.093 9.53307 168.523 9.89427 168.845 10.33V8.9712H171.27V18.5H168.845V17.1068C168.535 17.554 168.105 17.9267 167.555 18.2248C167.016 18.5115 166.391 18.6548 165.68 18.6548C164.877 18.6548 164.143 18.4484 163.478 18.0356C162.825 17.6228 162.303 17.0437 161.913 16.2984C161.535 15.5416 161.345 14.6759 161.345 13.7012ZM168.845 13.7356C168.845 13.1508 168.73 12.652 168.501 12.2392C168.271 11.8149 167.962 11.4939 167.572 11.276C167.182 11.0467 166.763 10.932 166.316 10.932C165.869 10.932 165.456 11.0409 165.078 11.2588C164.699 11.4767 164.39 11.7977 164.149 12.222C163.92 12.6348 163.805 13.1279 163.805 13.7012C163.805 14.2745 163.92 14.7791 164.149 15.2148C164.39 15.6391 164.699 15.9659 165.078 16.1952C165.468 16.4245 165.88 16.5392 166.316 16.5392C166.763 16.5392 167.182 16.4303 167.572 16.2124C167.962 15.9831 168.271 15.662 168.501 15.2492C168.73 14.8249 168.845 14.3204 168.845 13.7356ZM173.302 13.7356C173.302 12.7495 173.503 11.8895 173.904 11.1556C174.306 10.4103 174.862 9.83693 175.573 9.4356C176.284 9.0228 177.098 8.8164 178.015 8.8164C179.196 8.8164 180.171 9.11453 180.939 9.7108C181.719 10.2956 182.241 11.1212 182.504 12.1876H179.907C179.77 11.7748 179.535 11.4537 179.202 11.2244C178.881 10.9836 178.48 10.8632 177.998 10.8632C177.31 10.8632 176.765 11.1155 176.364 11.62C175.963 12.1131 175.762 12.8183 175.762 13.7356C175.762 14.6415 175.963 15.3467 176.364 15.8512C176.765 16.3443 177.31 16.5908 177.998 16.5908C178.973 16.5908 179.609 16.1551 179.907 15.2836H182.504C182.241 16.3156 181.719 17.1355 180.939 17.7432C180.159 18.3509 179.185 18.6548 178.015 18.6548C177.098 18.6548 176.284 18.4541 175.573 18.0528C174.862 17.64 174.306 17.0667 173.904 16.3328C173.503 15.5875 173.302 14.7217 173.302 13.7356ZM190.21 18.5L186.976 14.4408V18.5H184.568V5.772H186.976V13.0132L190.176 8.9712H193.306L189.109 13.7528L193.34 18.5H190.21ZM203.771 13.5292C203.771 13.8732 203.748 14.1828 203.702 14.458H196.736C196.794 15.146 197.034 15.6849 197.459 16.0748C197.883 16.4647 198.405 16.6596 199.024 16.6596C199.918 16.6596 200.555 16.2755 200.933 15.5072H203.53C203.255 16.4245 202.728 17.1813 201.948 17.7776C201.168 18.3624 200.211 18.6548 199.075 18.6548C198.158 18.6548 197.332 18.4541 196.599 18.0528C195.876 17.64 195.309 17.0609 194.896 16.3156C194.494 15.5703 194.294 14.7103 194.294 13.7356C194.294 12.7495 194.494 11.8837 194.896 11.1384C195.297 10.3931 195.859 9.81973 196.581 9.4184C197.304 9.01707 198.135 8.8164 199.075 8.8164C199.981 8.8164 200.79 9.01133 201.501 9.4012C202.223 9.79107 202.779 10.3472 203.169 11.0696C203.57 11.7805 203.771 12.6004 203.771 13.5292ZM201.277 12.8412C201.266 12.222 201.042 11.7289 200.606 11.362C200.17 10.9836 199.637 10.7944 199.007 10.7944C198.41 10.7944 197.906 10.9779 197.493 11.3448C197.092 11.7003 196.845 12.1991 196.753 12.8412H201.277ZM208.237 10.4504C208.546 9.94587 208.948 9.55027 209.441 9.2636C209.945 8.97693 210.518 8.8336 211.161 8.8336V11.362H210.524C209.767 11.362 209.194 11.5397 208.804 11.8952C208.426 12.2507 208.237 12.8699 208.237 13.7528V18.5H205.829V8.9712H208.237V10.4504Z" fill="#E6F0FD"/>
</svg>
